/* XPM */
static char *ed18038772d740ceb0962feef1951c22[] = {
/* columns rows colors chars-per-pixel */
"48 48 12 1 ",
"  c None",
". c #312825",
"X c #493837",
"o c #23245D",
"O c #5B3461",
"+ c #634B48",
"@ c #477E47",
"# c #875173",
"$ c #B2717B",
"% c #CFA297",
"& c #DFC8B4",
"* c #F0E8D8",
/* pixels */
"                    %% %% %%                    ",
"               &&  %*&&*&&&$$% %%%              ",
"              &&*%%%**&**&*&*%%%*%%             ",
"              ***&&&******&&*&&*&&%             ",
"            &&&*****&****&&*****$&%%            ",
"            &&**&*********&****&$%%$            ",
"          %%&***&*************&&&%&$&&          ",
"          %%%&**********&****&****&&**#         ",
"        &&**************&*************#         ",
"     %%%&&&*************&*******&****%#$$       ",
"     $%%&&&&&***&&*****&&&**&***&&&$&&&#%O      ",
"     $$%&&&&%%*&&***&**&*&**&&****&$%&%###O     ",
"   $$$##$&%&&%%%**&&*****&***&*&***$$%%$#OO     ",
"  $$%$&#$%#%&*****&*****&****&&%&***&%$$#O###   ",
"  $$%$$$$$#&*&****&*****&*****&%%%***&$$$##&$#  ",
"   $$%$$%**&&&*%*%&****&&&****&$$%&*%&%$$$%&##  ",
"$$$###&%&**&&%%%%%*****&%%*&***&%$$%%&$##$%$OO  ",
"#%$$##%%%*&&&&%&%&***%&%$%*%****%%$%$%###$$#O   ",
"#%&%$#$%$&$&%&%&%**%*%%$%%%%*&**%%%%$$#$#$OO####",
"##$$$&$%$$$***&&&&%%%&%%%&&&&%&%%%&&&$#$$&$O$%%O",
" #$%&*&&%$$***&&%&&%%&&%&&%&%%%%%&**&%#$&&&$#O#O",
"  #$%$&&%%%**&%&%%%%&&%%&&%&%&%%%&&**&#$$&&&#OO ",
" ####O$%%&*&&$#%$%*&&&$$%%%&&*&&$$%&%&%$#$$$OO  ",
"#####O%$%$&%&##$$&**&&%$%$&&&**&$##%$&%%$$$O$$##",
"O$%$$###%%$$$#$$$***&&&#$$&&&**&#####%$$&###$$$O",
"OOO$O%$*&%%$$$$%$**&&$%$#$%#&*&*%#$$$$%&&%##OOO ",
"OOO$O&**&&%$$%%%$*&&%#$$$$$#%&&*%$$$$#$%%%#$OO  ",
" OOOO&**%$%$%%%%%*$&##$$$$$$$%$&&$$$##$%$$%#O$  ",
"   #O#$#$O#&&&%%%$$$$$$%%$$$$%$$%$%%%$##OO$###O ",
"  #OO$###OO**&%%%$$%$$$%%$$$$%%$$$%%%%OOOO##$## ",
"  #$$$####$*&%%$&$&%$$%%%$$$%%%$%$%$%%#OO#O$$$# ",
" #&%$O#$#$&%#%$%*&%%$#%&&%$#$$%%%$##%#$#O#OO$OO ",
" O$#$O$$$$&$O$O&*%%$OO$&*%$##$#&%$#OO#$$##OOO$  ",
" OO#$O#O$$%###O**%%OOO#&*%$$#$#&&%##OO$#$OO#Oo  ",
"  $$OOOO&%%$###&%$###O$&&%##O##%&&%#OO#$O##Ooo  ",
"     OO%&$#O$##########&%$#OO###%&%#OO##OOOOoo  ",
"      O&$OOOOO#$$######&%%######$%####OOOOOoooo ",
"      O$OOO#O#$$#OO$$$#$$$#$##O#####OOOOOoooooo ",
"      $OOOo##$$#OOO$$#O#O##$#OOOO##OOOOOOoooooo ",
"       $$ oOO###OOO$#OO#OO#$$OOOOOOOOOOoOooooo  ",
"        ooooOOOOOOOO#OOOOOO#$OOOOOOOoOoooooooo  ",
"        ooooOOOOOOOO#OOOOOOO##OOOOOOoooooooooo  ",
"        oooo....OOOO.OOOOOOOOOOOOO..oooooooo    ",
"         oooo.XX..XXX.OOOOOOOOOOOXXooooooooo    ",
"        ooooXX+@@XX++X..OOOOOOOOOooooooooooo    ",
"         oooooooX+++++XX.OOOOXOoooooooooo oo    ",
"          oo ooo+oooooooooooooooooooooo         ",
"               oooooooooooooooooo oo  oo        "
};
