/* XPM */
static char *_a87ad038e934b30ec133e514d41d9610W20hoUmLTW7dsep[] = {
/* columns rows colors chars-per-pixel */
"48 48 11 1 ",
"  c #4C2F33",
". c #714336",
"X c #477E47",
"o c #9E633B",
"O c #75A44C",
"+ c #C1875E",
"@ c #A9CC52",
"# c #EBC974",
"$ c #348ED8",
"% c #75E6F2",
"& c white",
/* pixels */
"oooooooooooooooooooooooooooooooooooooooooooooooo",
"oooooooooooooooooooooooooooooooooooooooooooooooo",
"ooooooooooooooooo..oooooo..ooooooooooooooooooooo",
"oooooooo...o...o.XX.o..o.XX.o...o...o...oooooooo",
"ooooooo.XXX.XXX.XOOX.XX.XOOX.XXX.XXX.XXX.ooooooo",
"oooooo.XOOOXOOOXXO@OXOOXO@@OXOOOXOOOXOOOX.oooooo",
"oooo...X@@OX@@@XXO@@O@@X@@@@XO@@X@@@XO@@X...oooo",
"ooo.XXXO@@@O@@@OO@@@@@@O@@@@O@@@O@@@O@@@OXXX.ooo",
"oo.XO@@O@@@@@@@@@@@@@@@@@@@@@@@@@@@@@@@@O@@OX.oo",
"oo.XO@@@@@@@@@@@@@@@@@@@@@@@@@@@@@@@@@@@@@@OX.oo",
"oo.XOO@@@@@@@@@@@@@@@@@@@@@@@@@@@@@@@@@@@@OOX.oo",
"ooo.X@@@@@@@@@@@@@@@@@@@@@@@@@@@@@@@@@@@@@@X.ooo",
"oo.X@@@@@@@@@@@@@@@@@@@@@@@@@@@@@@@@@@@@@@@@X.oo",
"oo.X@@@@@@@@@@@@@@@@@@@@@@@@@@@@@@@@@@@@@@@@X.oo",
"ooo.X@@@@@@@@@@@@@@@@@@@@@@@@@@@@@@@@@@@@@@X.ooo",
"oooo.XO@@@@@@@@@@@@@@@@@@@@@@@@@@@@@@@@@@OX.oooo",
"ooo.XO@@@@@@@@@@@@@@@@@O@@@@###@@@@@@@@@@@OX.ooo",
"oo.XXO@@@@@@@@@@@@@O@@OOO@@O#&#O@@@@@@@@@@OXX.oo",
"oo.XO@@@@@@@@@@@@@@OO@OOO@@@X++@@@@@@@@@@@@OX.oo",
"ooo.XO@@@@@@@@@@@@@OOOXO@OOOOXX@@@@@@@@@@@OX.ooo",
"oooo.XO@@@@@@@@@OOOXOOO@OOO@%%%@@@@@@@@@@OX.oooo",
"ooo.XO@@@@@@@@@@@OOOXO@@@O@O%&%O@@@@@@@@@@OX.ooo",
"ooo.XO@@@@@@@@@@@@OOO@@@@@@@X$$@@@@@@@@@@@OX.ooo",
"oooo.XXO@@@@@@@@@@@@@@@@@@@@@@@@@@@@@@@@OXX.oooo",
"ooo.XO@@@@@@@@@@@@@@@@@@@@@@@@@@@@@@@@@@@@OX.ooo",
"oo.XO@@@@@@@@@@@@@@@@@@@@@@@@@@@@@@@@@@@@@@OX.oo",
"oo.XO@@@@@@@@@@@OO@@OOO@O%%@OOO@@@@@@@@@@@@OX.oo",
"oo.XO@@@@@@@@@@@@O@@OO@@@$&%OO@@@@@@@@@@@@@OX.oo",
"ooo.XO@@@@@@@@@@@@@OOOOO@X$%@@@@@@@@@@@@@@OX.ooo",
"oooo.XX@@@@@@@@@@O@O@OO@@@XO@OOO@@@@@@@@@XX.oooo",
"ooo.XO@@@@@@@@@@@OO@@O@OO@O@OOO@@@@@@@@@@@OX.ooo",
"ooo.XO@@@@@@@@@@@@O@@@OO@@@@OO@@@@@@@@@@@@OX.ooo",
"oooo.XO@@@@@@@@@@@@@@@@@@@@@@@@@@@@@@@@@@OX.oooo",
"ooo.XO@@@@@@@@@@@@@@@@@@@@@@@@@@@@@@@@@@@@OX.ooo",
"oo.XO@@@@@@@@@@@@@@@@@@@@@@@@@@@@@@@@@@@@@@OX.oo",
"oo.XO@@@@@@@@@@@@@@@@@@@@@@@@@@@@@@@@@@@@@@OX.oo",
"ooo.X@@@@@@@@@@@@@@@@@@@@@@@@@@@@@@@@@@@@@@X.ooo",
"oo.XOO@@@@@@@@@@@@@@@@@@@@@@@@@@@@@@@@@@@@OOX.oo",
"oo.XO@@@@@@@@@@@@@@@@@@@@@@@@@@@@@@@@@@@@@@OX.oo",
"oo.XO@@O@@@@@@@@@@@@@@@@@@@@@@@@@@@@@@@@O@@OX.oo",
"oo. XXXO@@@O@@@@@@@O@@@@O@@@@@@O@@@@O@@@OXXX .oo",
"oo.    X@@OX@@@@@@OX@@@@X@@O@@OX@@@@XO@@X    .oo",
"ooo..  XOOXXO@@OOOOXO@@OXOOXO@OXO@@OXXOOX  ..ooo",
"ooooo.  XX XOOOXXXX XOOX XX XOOXXOOOX XX  .ooooo",
"ooooo.      XXX      XX      XX  XXX      .ooooo",
"oooooo..           .    .               ..oooooo",
"oooooooo....   ....o.  .o....  ..   ....oooooooo",
"oooooooooooo...oooooo..oooooo..oo...oooooooooooo"
};
