/* XPM */
static char *_96917f3f5474015e8c1ed09b6c8d870org0CQRp6ABzWkg5[] = {
/* columns rows colors chars-per-pixel */
"32 32 8 1 ",
"  c None",
". c black",
"X c #1A702B",
"o c #704740",
"O c #935D4D",
"+ c #AD785A",
"@ c #3BA01E",
"# c #90CF1D",
/* pixels */
"                                ",
"                                ",
"           ..........           ",
"         ..##########...        ",
"      ...##############.        ",
"      .##############@@#.       ",
"      ..@#########X@#####.      ",
"     .###@@###@X##X@######...   ",
"     .#########@XX@#####@###.   ",
"    .####@X#####@@#######...    ",
"    .####@XXX#############@.    ",
"    .@####@@#########X###@#.    ",
"    .@X##############X#X@##.    ",
"    .@XXX###########@XXX@##.    ",
"    .@@XX@##########@XX@###.    ",
"    .@#@@############@@####.    ",
"    .@@##################@#.    ",
"    ..@@###########X####@.##.   ",
"     .X@@#######@X#X@###@X...   ",
"     .XX@@@######XXX@##@XX.     ",
"    .XX.XX@@@@@@@@XX@@@XX.      ",
"    .....XX@@@@@@@@@@XXX.       ",
"         .XXXXXXXXXXXX..        ",
"          ..XXXXXXXX..          ",
"            .oOOOOo.            ",
"            .OOOOOO.            ",
"            .++++++.            ",
"            .+O++++.            ",
"            .++++++.            ",
"           .++++++++.           ",
"             ++++++             ",
"                                "
};
